<svg xmlns="http://www.w3.org/2000/svg" width="220.002" height="198" viewBox="0 0 220.002 198">
  <g id="Dot_Ornament" data-name="Dot Ornament" transform="translate(330.002 -32.4) rotate(90)" opacity="0.5">
    <rect id="Rectangle_3" data-name="Rectangle 3" width="3.246" height="3.251" transform="translate(32.4 110)" fill="#808d9e"/>
    <rect id="Rectangle_3_Copy" data-name="Rectangle 3 Copy" width="3.246" height="3.251" transform="translate(54.039 110)" fill="#808d9e"/>
    <rect id="Rectangle_3_Copy_2" data-name="Rectangle 3 Copy 2" width="3.246" height="3.251" transform="translate(75.679 110)" fill="#808d9e"/>
    <rect id="Rectangle_3_Copy_3" data-name="Rectangle 3 Copy 3" width="3.246" height="3.251" transform="translate(97.318 110)" fill="#808d9e"/>
    <rect id="Rectangle_3_Copy_4" data-name="Rectangle 3 Copy 4" width="3.246" height="3.251" transform="translate(118.957 110)" fill="#808d9e"/>
    <rect id="Rectangle_3_Copy_5" data-name="Rectangle 3 Copy 5" width="3.246" height="3.251" transform="translate(140.597 110)" fill="#808d9e"/>
    <rect id="Rectangle_3_Copy_6" data-name="Rectangle 3 Copy 6" width="3.246" height="3.251" transform="translate(162.237 110)" fill="#808d9e"/>
    <rect id="Rectangle_3_Copy_7" data-name="Rectangle 3 Copy 7" width="3.246" height="3.251" transform="translate(183.876 110)" fill="#808d9e"/>
    <rect id="Rectangle_3_Copy_8" data-name="Rectangle 3 Copy 8" width="3.246" height="3.251" transform="translate(205.516 110)" fill="#808d9e"/>
    <rect id="Rectangle_3_Copy_9" data-name="Rectangle 3 Copy 9" width="3.246" height="3.251" transform="translate(227.154 110)" fill="#808d9e"/>
    <rect id="Rectangle_3_Copy_19" data-name="Rectangle 3 Copy 19" width="3.246" height="3.251" transform="translate(32.4 131.674)" fill="#808d9e"/>
    <rect id="Rectangle_3_Copy_18" data-name="Rectangle 3 Copy 18" width="3.246" height="3.251" transform="translate(54.039 131.674)" fill="#808d9e"/>
    <rect id="Rectangle_3_Copy_17" data-name="Rectangle 3 Copy 17" width="3.246" height="3.251" transform="translate(75.679 131.674)" fill="#808d9e"/>
    <rect id="Rectangle_3_Copy_16" data-name="Rectangle 3 Copy 16" width="3.246" height="3.251" transform="translate(97.318 131.674)" fill="#808d9e"/>
    <rect id="Rectangle_3_Copy_15" data-name="Rectangle 3 Copy 15" width="3.246" height="3.251" transform="translate(118.957 131.674)" fill="#808d9e"/>
    <rect id="Rectangle_3_Copy_14" data-name="Rectangle 3 Copy 14" width="3.246" height="3.251" transform="translate(140.597 131.674)" fill="#808d9e"/>
    <rect id="Rectangle_3_Copy_13" data-name="Rectangle 3 Copy 13" width="3.246" height="3.251" transform="translate(162.237 131.674)" fill="#808d9e"/>
    <rect id="Rectangle_3_Copy_12" data-name="Rectangle 3 Copy 12" width="3.246" height="3.251" transform="translate(183.876 131.674)" fill="#808d9e"/>
    <rect id="Rectangle_3_Copy_11" data-name="Rectangle 3 Copy 11" width="3.246" height="3.251" transform="translate(205.516 131.674)" fill="#808d9e"/>
    <rect id="Rectangle_3_Copy_10" data-name="Rectangle 3 Copy 10" width="3.246" height="3.251" transform="translate(227.154 131.674)" fill="#808d9e"/>
    <rect id="Rectangle_3_Copy_29" data-name="Rectangle 3 Copy 29" width="3.246" height="3.251" transform="translate(32.4 153.35)" fill="#808d9e"/>
    <rect id="Rectangle_3_Copy_28" data-name="Rectangle 3 Copy 28" width="3.246" height="3.251" transform="translate(54.039 153.35)" fill="#808d9e"/>
    <rect id="Rectangle_3_Copy_27" data-name="Rectangle 3 Copy 27" width="3.246" height="3.251" transform="translate(75.679 153.35)" fill="#808d9e"/>
    <rect id="Rectangle_3_Copy_26" data-name="Rectangle 3 Copy 26" width="3.246" height="3.251" transform="translate(97.318 153.35)" fill="#808d9e"/>
    <rect id="Rectangle_3_Copy_25" data-name="Rectangle 3 Copy 25" width="3.246" height="3.251" transform="translate(118.957 153.35)" fill="#808d9e"/>
    <rect id="Rectangle_3_Copy_24" data-name="Rectangle 3 Copy 24" width="3.246" height="3.251" transform="translate(140.597 153.35)" fill="#808d9e"/>
    <rect id="Rectangle_3_Copy_23" data-name="Rectangle 3 Copy 23" width="3.246" height="3.251" transform="translate(162.237 153.35)" fill="#808d9e"/>
    <rect id="Rectangle_3_Copy_22" data-name="Rectangle 3 Copy 22" width="3.246" height="3.251" transform="translate(183.876 153.35)" fill="#808d9e"/>
    <rect id="Rectangle_3_Copy_21" data-name="Rectangle 3 Copy 21" width="3.246" height="3.251" transform="translate(205.516 153.35)" fill="#808d9e"/>
    <rect id="Rectangle_3_Copy_20" data-name="Rectangle 3 Copy 20" width="3.246" height="3.251" transform="translate(227.154 153.35)" fill="#808d9e"/>
    <rect id="Rectangle_3_Copy_39" data-name="Rectangle 3 Copy 39" width="3.246" height="3.251" transform="translate(32.4 175.025)" fill="#808d9e"/>
    <rect id="Rectangle_3_Copy_38" data-name="Rectangle 3 Copy 38" width="3.246" height="3.251" transform="translate(54.039 175.025)" fill="#808d9e"/>
    <rect id="Rectangle_3_Copy_37" data-name="Rectangle 3 Copy 37" width="3.246" height="3.251" transform="translate(75.679 175.025)" fill="#808d9e"/>
    <rect id="Rectangle_3_Copy_36" data-name="Rectangle 3 Copy 36" width="3.246" height="3.251" transform="translate(97.318 175.025)" fill="#808d9e"/>
    <rect id="Rectangle_3_Copy_35" data-name="Rectangle 3 Copy 35" width="3.246" height="3.251" transform="translate(118.957 175.025)" fill="#808d9e"/>
    <rect id="Rectangle_3_Copy_34" data-name="Rectangle 3 Copy 34" width="3.246" height="3.251" transform="translate(140.597 175.025)" fill="#808d9e"/>
    <rect id="Rectangle_3_Copy_33" data-name="Rectangle 3 Copy 33" width="3.246" height="3.251" transform="translate(162.237 175.025)" fill="#808d9e"/>
    <rect id="Rectangle_3_Copy_32" data-name="Rectangle 3 Copy 32" width="3.246" height="3.251" transform="translate(183.876 175.025)" fill="#808d9e"/>
    <rect id="Rectangle_3_Copy_31" data-name="Rectangle 3 Copy 31" width="3.246" height="3.251" transform="translate(205.516 175.025)" fill="#808d9e"/>
    <rect id="Rectangle_3_Copy_30" data-name="Rectangle 3 Copy 30" width="3.246" height="3.251" transform="translate(227.154 175.025)" fill="#808d9e"/>
    <rect id="Rectangle_3_Copy_49" data-name="Rectangle 3 Copy 49" width="3.246" height="3.251" transform="translate(32.4 196.7)" fill="#808d9e"/>
    <rect id="Rectangle_3_Copy_48" data-name="Rectangle 3 Copy 48" width="3.246" height="3.251" transform="translate(54.039 196.7)" fill="#808d9e"/>
    <rect id="Rectangle_3_Copy_47" data-name="Rectangle 3 Copy 47" width="3.246" height="3.251" transform="translate(75.679 196.7)" fill="#808d9e"/>
    <rect id="Rectangle_3_Copy_46" data-name="Rectangle 3 Copy 46" width="3.246" height="3.251" transform="translate(97.318 196.7)" fill="#808d9e"/>
    <rect id="Rectangle_3_Copy_45" data-name="Rectangle 3 Copy 45" width="3.246" height="3.251" transform="translate(118.957 196.7)" fill="#808d9e"/>
    <rect id="Rectangle_3_Copy_44" data-name="Rectangle 3 Copy 44" width="3.246" height="3.251" transform="translate(140.597 196.7)" fill="#808d9e"/>
    <rect id="Rectangle_3_Copy_43" data-name="Rectangle 3 Copy 43" width="3.246" height="3.251" transform="translate(162.237 196.7)" fill="#808d9e"/>
    <rect id="Rectangle_3_Copy_42" data-name="Rectangle 3 Copy 42" width="3.246" height="3.251" transform="translate(183.876 196.7)" fill="#808d9e"/>
    <rect id="Rectangle_3_Copy_41" data-name="Rectangle 3 Copy 41" width="3.246" height="3.251" transform="translate(205.516 196.7)" fill="#808d9e"/>
    <rect id="Rectangle_3_Copy_40" data-name="Rectangle 3 Copy 40" width="3.246" height="3.251" transform="translate(227.154 196.7)" fill="#808d9e"/>
    <rect id="Rectangle_3_Copy_59" data-name="Rectangle 3 Copy 59" width="3.246" height="3.251" transform="translate(32.4 218.375)" fill="#808d9e"/>
    <rect id="Rectangle_3_Copy_58" data-name="Rectangle 3 Copy 58" width="3.246" height="3.251" transform="translate(54.039 218.375)" fill="#808d9e"/>
    <rect id="Rectangle_3_Copy_57" data-name="Rectangle 3 Copy 57" width="3.246" height="3.251" transform="translate(75.679 218.375)" fill="#808d9e"/>
    <rect id="Rectangle_3_Copy_56" data-name="Rectangle 3 Copy 56" width="3.246" height="3.251" transform="translate(97.318 218.375)" fill="#808d9e"/>
    <rect id="Rectangle_3_Copy_55" data-name="Rectangle 3 Copy 55" width="3.246" height="3.251" transform="translate(118.957 218.375)" fill="#808d9e"/>
    <rect id="Rectangle_3_Copy_54" data-name="Rectangle 3 Copy 54" width="3.246" height="3.251" transform="translate(140.597 218.375)" fill="#808d9e"/>
    <rect id="Rectangle_3_Copy_53" data-name="Rectangle 3 Copy 53" width="3.246" height="3.251" transform="translate(162.237 218.375)" fill="#808d9e"/>
    <rect id="Rectangle_3_Copy_52" data-name="Rectangle 3 Copy 52" width="3.246" height="3.251" transform="translate(183.876 218.375)" fill="#808d9e"/>
    <rect id="Rectangle_3_Copy_51" data-name="Rectangle 3 Copy 51" width="3.246" height="3.251" transform="translate(205.516 218.375)" fill="#808d9e"/>
    <rect id="Rectangle_3_Copy_50" data-name="Rectangle 3 Copy 50" width="3.246" height="3.251" transform="translate(227.154 218.375)" fill="#808d9e"/>
    <rect id="Rectangle_3_Copy_69" data-name="Rectangle 3 Copy 69" width="3.246" height="3.251" transform="translate(32.4 240.05)" fill="#808d9e"/>
    <rect id="Rectangle_3_Copy_68" data-name="Rectangle 3 Copy 68" width="3.246" height="3.251" transform="translate(54.039 240.05)" fill="#808d9e"/>
    <rect id="Rectangle_3_Copy_67" data-name="Rectangle 3 Copy 67" width="3.246" height="3.251" transform="translate(75.679 240.05)" fill="#808d9e"/>
    <rect id="Rectangle_3_Copy_66" data-name="Rectangle 3 Copy 66" width="3.246" height="3.251" transform="translate(97.318 240.05)" fill="#808d9e"/>
    <rect id="Rectangle_3_Copy_65" data-name="Rectangle 3 Copy 65" width="3.246" height="3.251" transform="translate(118.957 240.05)" fill="#808d9e"/>
    <rect id="Rectangle_3_Copy_64" data-name="Rectangle 3 Copy 64" width="3.246" height="3.251" transform="translate(140.597 240.05)" fill="#808d9e"/>
    <rect id="Rectangle_3_Copy_63" data-name="Rectangle 3 Copy 63" width="3.246" height="3.251" transform="translate(162.237 240.05)" fill="#808d9e"/>
    <rect id="Rectangle_3_Copy_62" data-name="Rectangle 3 Copy 62" width="3.246" height="3.251" transform="translate(183.876 240.05)" fill="#808d9e"/>
    <rect id="Rectangle_3_Copy_61" data-name="Rectangle 3 Copy 61" width="3.246" height="3.251" transform="translate(205.516 240.05)" fill="#808d9e"/>
    <rect id="Rectangle_3_Copy_60" data-name="Rectangle 3 Copy 60" width="3.246" height="3.251" transform="translate(227.154 240.05)" fill="#808d9e"/>
    <rect id="Rectangle_3_Copy_79" data-name="Rectangle 3 Copy 79" width="3.246" height="3.251" transform="translate(32.4 261.724)" fill="#808d9e"/>
    <rect id="Rectangle_3_Copy_78" data-name="Rectangle 3 Copy 78" width="3.246" height="3.251" transform="translate(54.039 261.725)" fill="#808d9e"/>
    <rect id="Rectangle_3_Copy_77" data-name="Rectangle 3 Copy 77" width="3.246" height="3.251" transform="translate(75.679 261.725)" fill="#808d9e"/>
    <rect id="Rectangle_3_Copy_76" data-name="Rectangle 3 Copy 76" width="3.246" height="3.251" transform="translate(97.318 261.725)" fill="#808d9e"/>
    <rect id="Rectangle_3_Copy_75" data-name="Rectangle 3 Copy 75" width="3.246" height="3.251" transform="translate(118.957 261.725)" fill="#808d9e"/>
    <rect id="Rectangle_3_Copy_74" data-name="Rectangle 3 Copy 74" width="3.246" height="3.251" transform="translate(140.597 261.725)" fill="#808d9e"/>
    <rect id="Rectangle_3_Copy_73" data-name="Rectangle 3 Copy 73" width="3.246" height="3.251" transform="translate(162.237 261.725)" fill="#808d9e"/>
    <rect id="Rectangle_3_Copy_72" data-name="Rectangle 3 Copy 72" width="3.246" height="3.251" transform="translate(183.876 261.725)" fill="#808d9e"/>
    <rect id="Rectangle_3_Copy_71" data-name="Rectangle 3 Copy 71" width="3.246" height="3.251" transform="translate(205.516 261.725)" fill="#808d9e"/>
    <rect id="Rectangle_3_Copy_70" data-name="Rectangle 3 Copy 70" width="3.246" height="3.251" transform="translate(227.154 261.725)" fill="#808d9e"/>
    <rect id="Rectangle_3_Copy_89" data-name="Rectangle 3 Copy 89" width="3.246" height="3.251" transform="translate(32.4 283.4)" fill="#808d9e"/>
    <rect id="Rectangle_3_Copy_88" data-name="Rectangle 3 Copy 88" width="3.246" height="3.251" transform="translate(54.039 283.4)" fill="#808d9e"/>
    <rect id="Rectangle_3_Copy_87" data-name="Rectangle 3 Copy 87" width="3.246" height="3.251" transform="translate(75.679 283.4)" fill="#808d9e"/>
    <rect id="Rectangle_3_Copy_86" data-name="Rectangle 3 Copy 86" width="3.246" height="3.251" transform="translate(97.318 283.4)" fill="#808d9e"/>
    <rect id="Rectangle_3_Copy_85" data-name="Rectangle 3 Copy 85" width="3.246" height="3.251" transform="translate(118.957 283.4)" fill="#808d9e"/>
    <rect id="Rectangle_3_Copy_84" data-name="Rectangle 3 Copy 84" width="3.246" height="3.251" transform="translate(140.597 283.4)" fill="#808d9e"/>
    <rect id="Rectangle_3_Copy_83" data-name="Rectangle 3 Copy 83" width="3.246" height="3.251" transform="translate(162.237 283.4)" fill="#808d9e"/>
    <rect id="Rectangle_3_Copy_82" data-name="Rectangle 3 Copy 82" width="3.246" height="3.251" transform="translate(183.876 283.4)" fill="#808d9e"/>
    <rect id="Rectangle_3_Copy_81" data-name="Rectangle 3 Copy 81" width="3.246" height="3.251" transform="translate(205.516 283.4)" fill="#808d9e"/>
    <rect id="Rectangle_3_Copy_80" data-name="Rectangle 3 Copy 80" width="3.246" height="3.251" transform="translate(227.154 283.4)" fill="#808d9e"/>
    <rect id="Rectangle_3_Copy_99" data-name="Rectangle 3 Copy 99" width="3.246" height="3.251" transform="translate(32.4 305.074)" fill="#808d9e"/>
    <rect id="Rectangle_3_Copy_98" data-name="Rectangle 3 Copy 98" width="3.246" height="3.251" transform="translate(54.039 305.074)" fill="#808d9e"/>
    <rect id="Rectangle_3_Copy_97" data-name="Rectangle 3 Copy 97" width="3.246" height="3.251" transform="translate(75.679 305.074)" fill="#808d9e"/>
    <rect id="Rectangle_3_Copy_96" data-name="Rectangle 3 Copy 96" width="3.246" height="3.251" transform="translate(97.318 305.074)" fill="#808d9e"/>
    <rect id="Rectangle_3_Copy_95" data-name="Rectangle 3 Copy 95" width="3.246" height="3.251" transform="translate(118.957 305.074)" fill="#808d9e"/>
    <rect id="Rectangle_3_Copy_94" data-name="Rectangle 3 Copy 94" width="3.246" height="3.251" transform="translate(140.597 305.074)" fill="#808d9e"/>
    <rect id="Rectangle_3_Copy_93" data-name="Rectangle 3 Copy 93" width="3.246" height="3.251" transform="translate(162.237 305.074)" fill="#808d9e"/>
    <rect id="Rectangle_3_Copy_92" data-name="Rectangle 3 Copy 92" width="3.246" height="3.251" transform="translate(183.876 305.074)" fill="#808d9e"/>
    <rect id="Rectangle_3_Copy_91" data-name="Rectangle 3 Copy 91" width="3.246" height="3.251" transform="translate(205.516 305.074)" fill="#808d9e"/>
    <rect id="Rectangle_3_Copy_90" data-name="Rectangle 3 Copy 90" width="3.246" height="3.251" transform="translate(227.154 305.074)" fill="#808d9e"/>
    <rect id="Rectangle_3_Copy_109" data-name="Rectangle 3 Copy 109" width="3.246" height="3.251" transform="translate(32.4 326.749)" fill="#808d9e"/>
    <rect id="Rectangle_3_Copy_108" data-name="Rectangle 3 Copy 108" width="3.246" height="3.251" transform="translate(54.039 326.751)" fill="#808d9e"/>
    <rect id="Rectangle_3_Copy_107" data-name="Rectangle 3 Copy 107" width="3.246" height="3.251" transform="translate(75.679 326.751)" fill="#808d9e"/>
    <rect id="Rectangle_3_Copy_106" data-name="Rectangle 3 Copy 106" width="3.246" height="3.251" transform="translate(97.318 326.751)" fill="#808d9e"/>
    <rect id="Rectangle_3_Copy_105" data-name="Rectangle 3 Copy 105" width="3.246" height="3.251" transform="translate(118.957 326.751)" fill="#808d9e"/>
    <rect id="Rectangle_3_Copy_104" data-name="Rectangle 3 Copy 104" width="3.246" height="3.251" transform="translate(140.597 326.751)" fill="#808d9e"/>
    <rect id="Rectangle_3_Copy_103" data-name="Rectangle 3 Copy 103" width="3.246" height="3.251" transform="translate(162.237 326.751)" fill="#808d9e"/>
    <rect id="Rectangle_3_Copy_102" data-name="Rectangle 3 Copy 102" width="3.246" height="3.251" transform="translate(183.876 326.751)" fill="#808d9e"/>
    <rect id="Rectangle_3_Copy_101" data-name="Rectangle 3 Copy 101" width="3.246" height="3.251" transform="translate(205.516 326.751)" fill="#808d9e"/>
    <rect id="Rectangle_3_Copy_100" data-name="Rectangle 3 Copy 100" width="3.246" height="3.251" transform="translate(227.154 326.751)" fill="#808d9e"/>
  </g>
</svg>
