<svg xmlns="http://www.w3.org/2000/svg" width="373.667" height="82.72" viewBox="0 0 373.667 82.72">
  <path id="Path_12913" data-name="Path 12913" d="M226.292,33.288q.007,1.673-.127,3.378a39.459,39.459,0,0,1-78.789-3.2c0-.051,0-.1,0-.153A14.125,14.125,0,0,0,133.329,19H14.052A14.052,14.052,0,0,0,0,33.047V87.664a14.051,14.051,0,0,0,14.052,14.051H359.615a14.051,14.051,0,0,0,14.051-14.051V33.047A14.051,14.051,0,0,0,359.615,19H240.337a14.11,14.11,0,0,0-14.045,14.293" transform="translate(0 -18.995)" fill="#212434"/>
</svg>
