<svg xmlns="http://www.w3.org/2000/svg" width="1168.409" height="1144.975" viewBox="0 0 1168.409 1144.975">
  <g id="Vector_4" data-name="Vector 4" transform="matrix(-0.966, -0.259, 0.259, -0.966, 928.26, 1144.975)">
    <path id="Vector_4-border" data-name="Vector 4-border" d="M256.1.327l5.1,32.747L256.1.327a37.609,37.609,0,0,0-22.331,11.684c-5.741,6.248-8.992,13.958-10.714,21.794-3.37,15.277-1.715,34.41,2.595,54.973,8.724,41.657,30.07,96.816,58.567,156.6C340.669,363.8,427.217,504.5,507.637,602.7c5.447,34.675,7.325,65.2,5.007,89.983-2.446,26.156-9.342,43.551-19.095,53.437-4.019,4.078-8.679,5.7-15.934,4.511-8.179-1.335-19.11-6.323-32.657-16.12-26.37-19.059-57.652-52.591-90.4-94.974C325.985,521.31,274.406,385.406,228.2,292.447c-23.061-46.376-45.758-84.1-64.517-102.99-4.794-4.817-10.11-9.238-15.874-12.109-5.793-2.885-13.816-5.025-22.3-1.953-8.448,3.049-13.376,9.834-16.18,16.03s-4.347,13.607-5.189,21.578l32.956,3.467c.243-2.289.534-4.207.841-5.8.686.621,1.432,1.33,2.238,2.14,14.577,14.681,35.26,47.95,58.351,94.393,34.128,68.642,71.383,161.623,99.621,252.839a1756.425,1756.425,0,0,1-97-166.945c-20.7-40.792-37.638-78.8-48.956-110.215a342.373,342.373,0,0,1-12.37-41.075c-2.6-11.8-3.266-20.139-2.721-25.336L104.136,213c-1.089,10.424.425,22.823,3.318,35.938a373.934,373.934,0,0,0,13.555,45.176c11.93,33.112,29.5,72.42,50.582,113.973,41.6,82,97.507,173.962,152.373,245.988,15.818,67.218,23.2,125.992,18.087,165.711-2.61,20.28-8.179,33.03-14.994,39.957-5.883,5.972-14.688,9.618-30.249,6.822l-5.86,32.613c23.859,4.287,44.55-.783,59.715-16.18,14.226-14.45,21.257-35.714,24.254-58.977,4.067-31.55,1.272-71.484-6.076-115.471,19.583,21.664,38.734,39.827,56.7,52.811,15.382,11.117,31.226,19.43,46.719,21.965,16.433,2.692,32.352-1.238,44.885-13.943,17.559-17.812,25.746-44.259,28.49-73.628a315.372,315.372,0,0,0,.328-49.094c21.229,22.678,41.848,41.7,61.117,55.558C622,712.944,636.891,721.146,651.259,725.2c14.532,4.116,29.668,4.257,43.372-2.923,45.169-23.643,56.949-78.355,53.5-136.863-2.682-45.494-14.7-97.85-32.284-150.878,75.477,48.574,160.3,74.651,236.087,36.2L936.936,441.18c-70.924,35.992-158.127,2.9-241.115-61.46-27.73-69.691-63.394-138-99.342-191.113-18.319-27.08-36.974-50.582-54.958-68.387C523.947,102.832,505.344,89.2,486.95,84.692a32.687,32.687,0,0,0-17.223-.03A24.182,24.182,0,0,0,454.815,97.27a33.174,33.174,0,0,0-3.042,16.008,69.379,69.379,0,0,0,2.557,15.292c5.465,20.139,19.7,47.808,39.271,78.079,38.88,60.11,102.3,135.771,174.663,193.556,25.846,66.641,43.6,133.213,46.78,187.164,3.333,56.524-9.491,91.791-35.789,105.555-4.026,2.11-9.9,2.96-18.983.4-9.253-2.617-20.593-8.477-33.85-18.006-25.708-18.488-55.685-48.616-87.534-86.826C519.308,473.784,465.862,327.8,411.1,211.213c-27.774-59.119-56.181-111.319-81.107-148.479-12.414-18.5-24.366-33.88-35.319-44.58A82.374,82.374,0,0,0,277.593,4.9,36.05,36.05,0,0,0,260.352,0,27.7,27.7,0,0,0,256.1.327Zm58.03,230.787C285.988,172.092,265.991,119.75,258.08,81.978c-4.019-19.147-4.5-32.717-2.669-41.03.872-3.952,2.065-5.756,2.744-6.494a3.968,3.968,0,0,1,2.092-1.183,12.738,12.738,0,0,1,1.345.654,49.749,49.749,0,0,1,9.931,7.948c8.589,8.381,19.065,21.615,30.95,39.331,23.651,35.252,51.253,85.811,78.631,144.1,43.955,93.564,86.573,205.4,111.15,303.341C426.3,438.807,360.048,327.444,314.127,231.114ZM477.852,116.655h-.035C477.8,116.654,477.814,116.653,477.852,116.655Zm43.575,72c-19.095-29.533-31.032-53.713-35.11-68.759-.041-.15-.08-.3-.119-.445,8.622,4.007,19.417,11.852,32.016,24.319,15.949,15.784,33.239,37.422,50.828,63.406,23.593,34.861,47.251,76.871,68.478,121.651C589.966,282.674,549.105,231.452,521.427,188.659Zm-381.6,15.822C139.847,204.443,139.848,204.446,139.824,204.481Zm-7.131,2.38C132.664,206.852,132.663,206.85,132.693,206.861ZM21.434,438.935c-9.424,1.245-15.262,7.612-18.126,13.883C.751,458.418.072,464.7,0,470.161a115.805,115.805,0,0,0,1.618,19.005C3.778,502.8,8.02,519.393,13.9,537.75c22.985,71.749,73.236,177.607,135,256.158-.035,21.228-1,41.3-2.019,60.2-1.1,20.385-2.274,39.823-2.274,57.188a16.567,16.567,0,0,0,33.135,0c0-16.239,1.111-34.529,2.229-55.406.427-7.941.851-16.2,1.2-24.74,33.486,34.705,70.729,61.019,109.765,68.03l5.86-32.613c-36.969-6.636-76.678-37.978-114.84-84.418-1.283-87.067-19.38-193.393-107.193-304.555-12.653-16.023-23.867-27.64-33.7-33.642-4.145-2.525-9.911-5.223-16.516-5.222A23.861,23.861,0,0,0,21.434,438.935Zm1.238,32.7C22.506,471.581,22.5,471.56,22.671,471.632ZM45.464,527.64c-5.592-17.44-9.313-32.27-11.109-43.633q-.252-1.6-.448-3.077a220.121,220.121,0,0,1,14.868,17.206c66.2,83.809,89.936,164.177,97.263,235.242C100.4,664.936,63.758,584.751,45.464,527.64Zm891.472-86.46,14.994,29.556a16.571,16.571,0,1,0-14.994-29.556Z" transform="translate(961.006 927.864) rotate(180)" fill="rgba(255,255,255,0.18)"/>
  </g>
</svg>
