<svg id="archive-download" xmlns="http://www.w3.org/2000/svg" width="20" height="20" viewBox="0 0 20 20">
  <path id="Vector_247" data-name="Vector 247" d="M20,6V3a3,3,0,0,0-3-3H16a2,2,0,0,0-1.6.8L13.2,2.4A4,4,0,0,1,10,4,4,4,0,0,1,6.8,2.4L5.6.8A2,2,0,0,0,4,0H3A3,3,0,0,0,0,3V6A3,3,0,0,0,3,9H17A3,3,0,0,0,20,6Z" transform="translate(0 11)" fill="#3394f8" opacity="0.4"/>
  <path id="Subtract" d="M1,11H2a2,2,0,0,1,1.6.8l1.2,1.6a4,4,0,0,0,6.4,0l1.2-1.6A2,2,0,0,1,14,11h1a3,3,0,0,1,1,.171V4a4,4,0,0,0-4-4H4A4,4,0,0,0,0,4v7.171A3,3,0,0,1,1,11ZM7.116,8.056a1.26,1.26,0,0,0,.134.116V4a.75.75,0,0,1,1.5,0V8.172a1.261,1.261,0,0,0,.134-.116L10.47,6.47A.75.75,0,0,1,11.53,7.53L9.945,9.116a2.75,2.75,0,0,1-3.889,0L4.47,7.53A.75.75,0,0,1,5.53,6.47Z" transform="translate(2)" fill="#3394f8" fill-rule="evenodd"/>
</svg>
