<svg xmlns="http://www.w3.org/2000/svg" width="154.362" height="29.261" viewBox="0 0 154.362 29.261">
  <g id="bitzenius-03" transform="translate(-63.299 -96.906)">
    <path id="Path_12889" data-name="Path 12889" d="M79.51,106.153a10.849,10.849,0,0,1,3.9,3.883,10.279,10.279,0,0,1,1.459,5.361,10.424,10.424,0,0,1-1.459,5.355,10.875,10.875,0,0,1-3.921,3.946,10.7,10.7,0,0,1-10.786,0,10.862,10.862,0,0,1-3.953-3.946A10.418,10.418,0,0,1,63.3,115.4V98.933a1.98,1.98,0,0,1,.558-1.434,1.9,1.9,0,0,1,2.76,0,2.043,2.043,0,0,1,.539,1.434v8.3a10.665,10.665,0,0,1,3.172-1.865,10.824,10.824,0,0,1,3.743-.634A10.5,10.5,0,0,1,79.51,106.153Zm-2,15.341a7.081,7.081,0,0,0,2.582-9.644,6.732,6.732,0,0,0-2.582-2.538,7.226,7.226,0,0,0-3.616-.926,6.8,6.8,0,0,0-3.477.92,6.687,6.687,0,0,0-2.538,2.538,7.284,7.284,0,0,0,0,7.087,6.89,6.89,0,0,0,2.538,2.538,6.7,6.7,0,0,0,3.477.964A7.112,7.112,0,0,0,77.512,121.494Z" fill="#4d94f1"/>
    <path id="Path_12890" data-name="Path 12890" d="M102.433,102.359a2.189,2.189,0,0,1,0-3.122,2.221,2.221,0,0,1,3.1,0,2.2,2.2,0,0,1-3.1,3.122Zm.2,23.526a1.9,1.9,0,0,1-.584-1.389v-17a1.8,1.8,0,0,1,.584-1.364,1.9,1.9,0,0,1,1.389-.565,1.789,1.789,0,0,1,1.345.565,1.9,1.9,0,0,1,.539,1.364v17a1.941,1.941,0,0,1-.565,1.389,1.821,1.821,0,0,1-1.364.584,1.853,1.853,0,0,1-1.345-.584Z" transform="translate(-14.066 -0.623)" fill="#4d94f1"/>
    <path id="Path_12891" data-name="Path 12891" d="M118.9,125.726a8.6,8.6,0,0,1-3.432-3.54A11.96,11.96,0,0,1,114.2,116.4v-15.43a2.185,2.185,0,0,1,2-2.049,1.834,1.834,0,0,1,1.364.584,1.992,1.992,0,0,1,.565,1.434v4.708h8.787a1.843,1.843,0,1,1,0,3.68h-8.844v7.265a6.66,6.66,0,0,0,1.637,4.866,5.215,5.215,0,0,0,3.877,1.681,7.481,7.481,0,0,0,2.627-.4,8.749,8.749,0,0,0,2.309-1.44,2.163,2.163,0,0,1,1.072-.311,1.459,1.459,0,0,1,1.3.673,1.313,1.313,0,0,1,.273.895,2.17,2.17,0,0,1-.761,1.618,9.517,9.517,0,0,1-6.909,2.716,9.409,9.409,0,0,1-4.6-1.161Z" transform="translate(-18.602 -0.736)" fill="#4d94f1"/>
    <path id="Path_12892" data-name="Path 12892" d="M161.064,127.349a1.713,1.713,0,0,1,.558,1.269,1.8,1.8,0,0,1-.558,1.32,1.865,1.865,0,0,1-1.37.565H145.837a1.9,1.9,0,0,1-1.459-.634,1.941,1.941,0,0,1-.558-1.364,1.9,1.9,0,0,1,.178-.857,4.8,4.8,0,0,1,.539-.806l11.122-13.59h-9.714a1.859,1.859,0,0,1-1.37-.558,1.814,1.814,0,0,1-.558-1.326,1.694,1.694,0,0,1,.558-1.269,1.9,1.9,0,0,1,1.37-.539H159a2.2,2.2,0,0,1,1.637.634,1.713,1.713,0,0,1,.634,1.186,2.772,2.772,0,0,1-.717,1.8L149.377,126.81h10.291a1.859,1.859,0,0,1,1.4.539Z" transform="translate(-29.433 -4.624)" fill="#4d94f1"/>
    <path id="Path_12893" data-name="Path 12893" d="M188.7,110.586a9.625,9.625,0,0,1,3.5,3.674,10.216,10.216,0,0,1,1.269,4.955,3.116,3.116,0,0,1-.425,1.732,1.434,1.434,0,0,1-1.269.634H177.081a6.827,6.827,0,0,0,2.354,3.839,6.433,6.433,0,0,0,4.238,1.5,6.776,6.776,0,0,0,4.708-1.745A2.646,2.646,0,0,1,190,124.5a1.535,1.535,0,0,1,1.269.634,1.681,1.681,0,0,1,.355,1.072,2.4,2.4,0,0,1-.673,1.618,9.85,9.85,0,0,1-7.411,2.823,10.209,10.209,0,0,1-5.387-1.434,10.336,10.336,0,0,1-3.743-3.9,10.976,10.976,0,0,1-1.37-5.425,10.836,10.836,0,0,1,1.37-5.406,10.152,10.152,0,0,1,3.769-3.858,10.494,10.494,0,0,1,5.45-1.415,9.517,9.517,0,0,1,5.069,1.377Zm1.3,7.468a4.543,4.543,0,0,0-.92-2.582,6.141,6.141,0,0,0-2.29-1.9,6.744,6.744,0,0,0-3.026-.692,6.51,6.51,0,0,0-4.194,1.453,7.1,7.1,0,0,0-2.443,3.705Z" transform="translate(-40.114 -4.497)" fill="#4d94f1"/>
    <path id="Path_12894" data-name="Path 12894" d="M224.657,110.59a9.8,9.8,0,0,1,3.566,3.718,10.532,10.532,0,0,1,1.269,5.184v9.06a1.9,1.9,0,0,1-.539,1.364,1.783,1.783,0,0,1-1.345.565,2.024,2.024,0,0,1-1.415-.565,1.789,1.789,0,0,1-.6-1.364v-9.238a6.662,6.662,0,0,0-1.637-4.555,5.469,5.469,0,0,0-4.327-1.859,6,6,0,0,0-3.172.85,6.1,6.1,0,0,0-2.144,2.309,6.592,6.592,0,0,0-.812,3.255v9.238a1.9,1.9,0,0,1-.539,1.364,1.783,1.783,0,0,1-1.345.565,1.941,1.941,0,0,1-1.389-.565,1.815,1.815,0,0,1-.584-1.364v-9.06a10.418,10.418,0,0,1,1.326-5.184,9.911,9.911,0,0,1,3.61-3.718,9.675,9.675,0,0,1,5.076-1.37A9.555,9.555,0,0,1,224.657,110.59Z" transform="translate(-53.493 -4.501)" fill="#4d94f1"/>
    <path id="Path_12895" data-name="Path 12895" d="M247.168,102.359a2.2,2.2,0,1,1,3.109-.013A2.208,2.208,0,0,1,247.168,102.359Z" transform="translate(-66.975 -0.623)" fill="#4d94f1"/>
    <path id="Path_12896" data-name="Path 12896" d="M251.39,129.4a9.84,9.84,0,0,1-3.521-3.743,10.659,10.659,0,0,1-1.269-5.184V111.5a1.821,1.821,0,0,1,.584-1.364,1.942,1.942,0,0,1,1.389-.565,1.821,1.821,0,0,1,1.326.565,1.846,1.846,0,0,1,.558,1.364v9.13a6.472,6.472,0,0,0,1.707,4.574,5.552,5.552,0,0,0,4.264,1.84,5.349,5.349,0,0,0,4.257-1.859,6.827,6.827,0,0,0,1.618-4.644V111.5a1.815,1.815,0,0,1,.577-1.364,1.954,1.954,0,0,1,1.4-.565,1.808,1.808,0,0,1,1.32.565,1.852,1.852,0,0,1,.565,1.364v8.971a10.728,10.728,0,0,1-1.269,5.184,9.841,9.841,0,0,1-3.521,3.743,9.612,9.612,0,0,1-9.955,0Z" transform="translate(-67.003 -4.629)" fill="#4d94f1"/>
    <path id="Path_12897" data-name="Path 12897" d="M285.515,129.873a7.188,7.188,0,0,1-2.982-2.17,2.157,2.157,0,0,1-.673-1.573,1.631,1.631,0,0,1,.45-1.123,1.459,1.459,0,0,1,1.117-.489,3.806,3.806,0,0,1,1.9.761,6.363,6.363,0,0,0,4.892,1.8,3.959,3.959,0,0,0,2.487-.742,2.252,2.252,0,0,0,.964-1.859,2.208,2.208,0,0,0-1.142-1.9,17.031,17.031,0,0,0-3.972-1.593,13.907,13.907,0,0,1-4.53-2.309,5.012,5.012,0,0,1,.431-7.937,8.946,8.946,0,0,1,5.222-1.5,8.684,8.684,0,0,1,6.592,2.538,1.732,1.732,0,0,1,.565.742,2.316,2.316,0,0,1,.2.914,1.84,1.84,0,0,1-.45,1.212,1.352,1.352,0,0,1-1.079.539,2.419,2.419,0,0,1-.85-.133,5.793,5.793,0,0,1-.945-.495,4.67,4.67,0,0,0-1.973-1.269,7.466,7.466,0,0,0-2.538-.425,4.441,4.441,0,0,0-2.126.489,1.694,1.694,0,0,0-.92,1.618,1.9,1.9,0,0,0,.964,1.751,17.712,17.712,0,0,0,3.2,1.345,17.708,17.708,0,0,1,5.431,2.576,4.632,4.632,0,0,1,1.789,3.807,5.438,5.438,0,0,1-1.009,3.248,6.681,6.681,0,0,1-2.735,2.2,9,9,0,0,1-3.807.787A11.47,11.47,0,0,1,285.515,129.873Z" transform="translate(-79.892 -4.503)" fill="#4d94f1"/>
  </g>
</svg>
