<svg id="Bot" xmlns="http://www.w3.org/2000/svg" width="21.667" height="19.767" viewBox="0 0 21.667 19.767">
  <path id="Union_2" data-name="Union 2" d="M6.939,19.767a5.5,5.5,0,0,1-5.478-5A2.03,2.03,0,0,1,.41,14.044a2.02,2.02,0,0,1,1.1-3.176A5.5,5.5,0,0,1,6.939,6.284H9.75l.108-1.85a.929.929,0,0,1,1.855,0l.108,1.85h2.907a5.5,5.5,0,0,1,5.424,4.584,2.02,2.02,0,0,1,.054,3.9,5.5,5.5,0,0,1-5.478,5Zm3.713-3.47H12.2a1.094,1.094,0,0,1,1.033.734,1.094,1.094,0,0,0,1.033.734H15.1a3.435,3.435,0,0,0,3.431-3.431V11.716A3.435,3.435,0,0,0,15.1,8.285h-.829a1.093,1.093,0,0,0-1.035.741l-.006.018a1.093,1.093,0,0,1-1.035.741H9.468a1.092,1.092,0,0,1-1.035-.741l-.006-.018a1.093,1.093,0,0,0-1.035-.741H6.562a3.435,3.435,0,0,0-3.431,3.431v2.617a3.435,3.435,0,0,0,3.431,3.431H7.4a1.094,1.094,0,0,0,1.033-.734A1.1,1.1,0,0,1,9.462,16.3Zm-1.137-15a1.293,1.293,0,1,1,1.293,1.293A1.293,1.293,0,0,1,9.515,1.293Z" fill="#808d9e"/>
  <path id="Path_12904" data-name="Path 12904" d="M82.551,180.165h0a1.4,1.4,0,0,1-1.4-1.4v-1.756a1.4,1.4,0,1,1,2.809,0v1.756a1.4,1.4,0,0,1-1.4,1.4" transform="translate(-76.183 -164.858)" fill="#808d9e" opacity="0.3"/>
  <path id="Path_12905" data-name="Path 12905" d="M228.508,180.165h0a1.4,1.4,0,0,1-1.4-1.4v-1.756a1.4,1.4,0,1,1,2.809,0v1.756a1.4,1.4,0,0,1-1.4,1.4" transform="translate(-213.21 -164.858)" fill="#808d9e" opacity="0.3"/>
</svg>
