<svg id="icon" xmlns="http://www.w3.org/2000/svg" width="30" height="33.384" viewBox="0 0 30 33.384">
  <path id="Combined_Shape" data-name="Combined Shape" d="M16.667,22.266V7.694c.025-.012.054-.027.089-.048L30,0V13.306a1.882,1.882,0,0,1-.92,1.614L16.669,22.265Zm-3.334,0h0L.92,14.92A1.884,1.884,0,0,1,0,13.306V.2L12.9,7.646a1.669,1.669,0,0,0,.433.175V22.266Z" transform="translate(0 11.118)" fill="#3394f8"/>
  <path id="Path" d="M0,7.7a1.873,1.873,0,0,1,.588-.491L13.713.22a1.875,1.875,0,0,1,1.763,0L28.6,7.211a1.873,1.873,0,0,1,.474.359l-14.39,8.308a1.675,1.675,0,0,0-.261.186,1.675,1.675,0,0,0-.261-.186Z" transform="translate(0.405 0)" fill="#3394f8" opacity="0.499"/>
</svg>
