<svg id="camera_switch" data-name="camera switch" xmlns="http://www.w3.org/2000/svg" width="27.137" height="27.001" viewBox="0 0 27.137 27.001">
  <path id="Vector" d="M13.916,8.841V5.894A3.778,3.778,0,0,0,10.051,2.21h-.1a3.071,3.071,0,0,0-3-2.21,3.071,3.071,0,0,0-3,2.21h-.1A3.778,3.778,0,0,0,0,5.894V8.841a3.778,3.778,0,0,0,3.866,3.684h6.185A3.778,3.778,0,0,0,13.916,8.841Z" transform="translate(6.61 7.238)" fill="#fff" opacity="0.4"/>
  <path id="Ellipse_1149_Stroke_" data-name="Ellipse 1149 (Stroke)" d="M12.525,2.367A2.324,2.324,0,0,1,15.072.015,13.57,13.57,0,0,1,27.137,13.5a1.044,1.044,0,1,1-2.087,0A11.483,11.483,0,0,0,14.843,2.089a.164.164,0,0,0-.141.051.315.315,0,0,0-.09.227v.7a1.044,1.044,0,0,1-2.087,0ZM1.044,12.457A1.044,1.044,0,0,1,2.087,13.5,11.483,11.483,0,0,0,12.293,24.911a.165.165,0,0,0,.141-.051.315.315,0,0,0,.09-.227v-.7a1.044,1.044,0,0,1,2.087,0v.7a2.324,2.324,0,0,1-2.548,2.353A13.57,13.57,0,0,1,0,13.5,1.044,1.044,0,0,1,1.044,12.457Z" transform="translate(0 0)" fill="#fff" fill-rule="evenodd"/>
  <path id="Ellipse_1150" data-name="Ellipse 1150" d="M4.175-.913A2.087,2.087,0,0,0,2.087-3,2.087,2.087,0,0,0,0-.913,2.087,2.087,0,0,0,2.087,1.175,2.087,2.087,0,0,0,4.175-.913Z" transform="translate(11.481 15.109)" fill="#fff"/>
</svg>
