<svg id="deal" xmlns="http://www.w3.org/2000/svg" width="28" height="20" viewBox="0 0 28 20">
  <g id="deal-2" data-name="deal">
    <path id="Vector" d="M0,13.683V5.1a3.214,3.214,0,0,1,1.548-2.82L4.418.666A5.1,5.1,0,0,1,6.922,0H9.276a5.4,5.4,0,0,1,4.408,2.416L10.968,6.237a2.575,2.575,0,0,0,.154,3.133,1.929,1.929,0,0,0,2.955,0l1.981-2.231,3.207,6.62a3.266,3.266,0,0,1-1.779,4.568l-4.942,1.391A7.531,7.531,0,0,1,7.2,19.235L1.7,16.581A3.185,3.185,0,0,1,0,13.683Z" transform="translate(0 0)" fill="#3394f8" opacity="0.3"/>
    <path id="Vector-2" data-name="Vector" d="M17.49,14.038V5.1a3.215,3.215,0,0,0-1.548-2.82L13.072.666A5.1,5.1,0,0,0,10.568,0H7.581A5.39,5.39,0,0,0,3.208,2.366L.458,6.237A2.575,2.575,0,0,0,.612,9.37a1.929,1.929,0,0,0,2.955,0L5.548,7.139l3.207,6.62a3.476,3.476,0,0,1-.238,3.431H14.69A2.992,2.992,0,0,0,17.49,14.038Z" transform="translate(10.51 0)" fill="#3394f8"/>
  </g>
</svg>
