<svg id="deposit" xmlns="http://www.w3.org/2000/svg" width="20" height="18" viewBox="0 0 20 18">
  <g id="deposit-2" data-name="deposit">
    <path id="Subtract" d="M4,0H16a4,4,0,0,1,0,8V4H4V8A4,4,0,0,1,4,0Z" fill="#3394f8"/>
    <path id="Vector" d="M12,12V0H0V12a2,2,0,0,0,2,2h8A2,2,0,0,0,12,12Z" transform="translate(4 4)" fill="#3394f8" opacity="0.4"/>
    <path id="Vector_Stroke_" data-name="Vector (Stroke)" d="M3.5,4.939l.72-.72A.75.75,0,0,1,5.28,5.28L3.987,6.573a1.75,1.75,0,0,1-2.475,0L.22,5.28A.75.75,0,0,1,1.28,4.22l.72.72V.75a.75.75,0,0,1,1.5,0Z" transform="translate(12.75 14.336) rotate(180)" fill="#3394f8"/>
  </g>
</svg>
