<svg id="door" xmlns="http://www.w3.org/2000/svg" width="12" height="20.75" viewBox="0 0 12 20.75">
  <g id="door-2" data-name="door">
    <path id="Vector_Stroke_" data-name="Vector (Stroke)" d="M4.993,1.5A5.231,5.231,0,0,0,1.28,3.038.75.75,0,0,1,.22,1.977a6.75,6.75,0,0,1,9.546,0A.75.75,0,0,1,8.7,3.038,5.231,5.231,0,0,0,4.993,1.5Zm0,3A2.241,2.241,0,0,0,3.4,5.159.75.75,0,0,1,2.341,4.1a3.75,3.75,0,0,1,5.3,0A.75.75,0,0,1,6.584,5.159,2.241,2.241,0,0,0,4.993,4.5Z" transform="translate(1.007)" fill="#808d9e" fill-rule="evenodd"/>
    <path id="Rectangle_540" data-name="Rectangle 540" d="M0,4A4,4,0,0,1,4,0h6a4,4,0,0,1,4,4V8a4,4,0,0,1-4,4H4A4,4,0,0,1,0,8Z" transform="translate(12 6.75) rotate(90)" fill="#808d9e" opacity="0.3"/>
    <path id="Vector_1451_Stroke_" data-name="Vector 1451 (Stroke)" d="M.75,0A.75.75,0,0,1,1.5.75v3a.75.75,0,0,1-1.5,0v-3A.75.75,0,0,1,.75,0Z" transform="translate(5.25 11.5)" fill="#808d9e"/>
  </g>
</svg>
