<svg id="earnings" xmlns="http://www.w3.org/2000/svg" width="17.5" height="17.5" viewBox="0 0 17.5 17.5">
  <g id="earnings-2" data-name="earnings">
    <path id="Ellipse_812" data-name="Ellipse 812" d="M4-2A2,2,0,0,0,2-4,2,2,0,0,0,0-2,2,2,0,0,0,2,0,2,2,0,0,0,4-2Z" transform="translate(10.75 14.75)" fill="#3394f8" opacity="0.4"/>
    <path id="Ellipse_813" data-name="Ellipse 813" d="M4-2A2,2,0,0,0,2-4,2,2,0,0,0,0-2,2,2,0,0,0,2,0,2,2,0,0,0,4-2Z" transform="translate(2.75 6.75)" fill="#3394f8" opacity="0.4"/>
    <path id="Vector_Stroke_" data-name="Vector (Stroke)" d="M10,.75A.75.75,0,0,1,10.75,0h4A2.75,2.75,0,0,1,17.5,2.75v4a.75.75,0,1,1-1.5,0v-4a1.259,1.259,0,0,0-.012-.177L1.28,17.28A.75.75,0,0,1,.22,16.22L14.927,1.512A1.261,1.261,0,0,0,14.75,1.5h-4A.75.75,0,0,1,10,.75Z" fill="#3394f8"/>
  </g>
</svg>
