<svg id="Huge-icon_menu_bulk_menu-home" data-name="Huge-icon/menu/bulk/menu-home" xmlns="http://www.w3.org/2000/svg" width="18" height="20" viewBox="0 0 18 20">
  <g id="menu_home" data-name="menu home" transform="translate(0 0)">
    <path id="Vector_2474" data-name="Vector 2474" d="M18,15.967V8.15a4.046,4.046,0,0,0-1.47-3.124l-5-4.117a3.975,3.975,0,0,0-5.06,0l-5,4.117A4.046,4.046,0,0,0,0,8.15v7.816A4.017,4.017,0,0,0,4,20H14A4.017,4.017,0,0,0,18,15.967Z" fill="#808d9e" opacity="0.3"/>
    <path id="Vector_2472_Stroke_" data-name="Vector 2472 (Stroke)" d="M0,.75A.75.75,0,0,1,.75,0h8a.75.75,0,0,1,0,1.5h-8A.75.75,0,0,1,0,.75Z" transform="translate(4.25 9.25)" fill="#808d9e"/>
    <path id="Vector_2473_Stroke_" data-name="Vector 2473 (Stroke)" d="M0,.75A.75.75,0,0,1,.75,0h8a.75.75,0,0,1,0,1.5h-8A.75.75,0,0,1,0,.75Z" transform="translate(4.25 13.25)" fill="#808d9e"/>
  </g>
</svg>
