<svg id="logout" xmlns="http://www.w3.org/2000/svg" width="24" height="24" viewBox="0 0 24 24">
  <g id="logout-2" data-name="logout" transform="translate(2 3.25)">
    <path id="Union" d="M6.146,4.22A.75.75,0,0,0,7.207,5.28L8.5,3.987a1.75,1.75,0,0,0,0-2.475L7.207.22A.75.75,0,0,0,6.146,1.28l.72.72H.75a.75.75,0,0,0,0,1.5H6.866Z" transform="translate(11 5.97)" fill="#808d9e"/>
    <path id="Subtract" d="M0,17.5H7.25A4.75,4.75,0,0,0,12,12.75a.75.75,0,0,0-1.5,0A3.25,3.25,0,0,1,7.25,16H3.464A4.737,4.737,0,0,1,0,17.5Zm3.464-16H7.25A3.25,3.25,0,0,1,10.5,4.75a.75.75,0,0,0,1.5,0A4.75,4.75,0,0,0,7.25,0H0A4.737,4.737,0,0,1,3.464,1.5Z" transform="translate(4.75)" fill="#808d9e" fill-rule="evenodd"/>
    <path id="Vector_Stroke_" data-name="Vector (Stroke)" d="M0,4.75a4.75,4.75,0,0,1,9.5,0v8a4.75,4.75,0,0,1-9.5,0Z" fill="#808d9e" opacity="0.4"/>
  </g>
</svg>
