<svg id="money-income" xmlns="http://www.w3.org/2000/svg" width="25.494" height="32.48" viewBox="0 0 25.494 32.48">
  <g id="money_income" data-name="money income" transform="translate(0 -11.925)">
    <path id="Rectangle_859" data-name="Rectangle 859" d="M0,4.32A4.285,4.285,0,0,1,4.249,0h17a4.285,4.285,0,0,1,4.249,4.32V15.838a4.285,4.285,0,0,1-4.249,4.32h-17A4.285,4.285,0,0,1,0,15.838Z" transform="translate(0 11.925)" fill="rgba(51,148,248,0.3)"/>
    <path id="Ellipse_740" data-name="Ellipse 740" d="M2.833,1.44A1.428,1.428,0,0,0,1.416,0,1.428,1.428,0,0,0,0,1.44,1.428,1.428,0,0,0,1.416,2.88,1.428,1.428,0,0,0,2.833,1.44Z" transform="translate(19.829 26.324)" fill="#3394f8"/>
    <path id="Ellipse_741" data-name="Ellipse 741" d="M2.833,1.44A1.428,1.428,0,0,0,1.416,0,1.428,1.428,0,0,0,0,1.44,1.428,1.428,0,0,0,1.416,2.88,1.428,1.428,0,0,0,2.833,1.44Z" transform="translate(2.833 14.805)" fill="#3394f8"/>
    <path id="Ellipse_742" data-name="Ellipse 742" d="M5.665,2.88A2.856,2.856,0,0,0,2.833,0,2.856,2.856,0,0,0,0,2.88a2.856,2.856,0,0,0,2.833,2.88A2.856,2.856,0,0,0,5.665,2.88Z" transform="translate(9.914 19.125)" fill="#3394f8"/>
    <path id="Vector_Stroke_" data-name="Vector (Stroke)" d="M4.957,6.315,5.976,5.279a1.05,1.05,0,0,1,1.5,0,1.093,1.093,0,0,1,0,1.527L5.648,8.668a2.45,2.45,0,0,1-3.505,0L.311,6.806a1.093,1.093,0,0,1,0-1.527,1.05,1.05,0,0,1,1.5,0L2.833,6.315V1.08a1.062,1.062,0,1,1,2.124,0Z" transform="translate(16.642 44.406) rotate(180)" fill="#3394f8"/>
  </g>
</svg>
