<svg xmlns="http://www.w3.org/2000/svg" width="47.783" height="42.749" viewBox="0 0 47.783 42.749">
  <g id="Group_182" data-name="Group 182" transform="matrix(0.809, -0.588, 0.588, 0.809, 0, 25.735)">
    <g id="Group_180" data-name="Group 180">
      <path id="Path_12924" data-name="Path 12924" d="M10.949,20.134a1.793,1.793,0,0,0,1.561.9A1.855,1.855,0,0,0,14.254,19.7c1.621-4.362,2.443-8.96,3.794-13.4,3.513,3.219,6.807,6.724,10.962,9.124a1.819,1.819,0,0,0,2.656-1.081A49.8,49.8,0,0,1,33.7,5.9c.614.936,1.25,1.858,1.922,2.754a20.57,20.57,0,0,0,5.447,5.428,1.809,1.809,0,1,0,1.825-3.123c-.173-.106-.342-.216-.508-.33l-.142-.1c.045.03-.227-.176-.252-.2a15.893,15.893,0,0,1-1.253-1.17c-.383-.391-.745-.8-1.1-1.219-.2-.238-.4-.482-.6-.726-.254-.318-.168-.211-.413-.538A67.42,67.42,0,0,1,34.834.9,1.828,1.828,0,0,0,33.272,0a1.864,1.864,0,0,0-1.744,1.328,55.952,55.952,0,0,0-2.907,9.535,45.461,45.461,0,0,1-4.109-3.454C22.5,5.56,20.572,3.623,18.477,1.869a1.838,1.838,0,0,0-3.022.8C13.975,6.649,13.162,10.827,12,14.9,9.378,11.187,6,8.044,3.073,4.548a1.813,1.813,0,0,0-2.557,0,1.843,1.843,0,0,0,0,2.557C4.173,11.474,8.4,15.082,10.949,20.134" transform="translate(0)" fill="#fee603"/>
    </g>
  </g>
</svg>
