<svg xmlns="http://www.w3.org/2000/svg" width="83.453" height="99.342" viewBox="0 0 83.453 99.342">
  <g id="Group_208" data-name="Group 208" transform="translate(83.453 22.601) rotate(120)">
    <g id="Group_103" data-name="Group 103" transform="translate(0 0)">
      <path id="Path_12879" data-name="Path 12879" d="M88.128,40.467c-3.949,1.675-7.961,3.635-12.12,4.717a.507.507,0,0,1-.389-.923,69.685,69.685,0,0,1,9.735-4.735l-.377-.207a.8.8,0,0,1-.606.381,108.519,108.519,0,0,1-51.017-6.437c-2.208-.846-4.412-1.746-6.586-2.719a61.584,61.584,0,0,1-24.447-2.3c-.023.178-.046.356-.071.534a4.544,4.544,0,0,1-.849,2.8.659.659,0,0,1-1.02-.132A4.33,4.33,0,0,1,.068,28.7c.052-1.1.121-2.2.235-3.294.153-1.464,2.445-1.505,2.325,0-.042.526-.094,1.051-.153,1.575a78.47,78.47,0,0,0,20.736,1.883,68.267,68.267,0,0,1-11.953-7.423c-3.946-3.11-7.968-7.048-9.674-11.9C.659,6.908.6,3.631,3.016,1.774,6.221-.688,11.844,0,15.539.415a60.519,60.519,0,0,1,18.51,5.091c5.231,2.413,12.277,6.626,12.923,13.006C47.828,26.963,36.7,29.092,30.59,30.052l-.021,0q2.561,1.057,5.149,1.992c15.4,5.587,31.157,6.739,47.363,6.17a17.175,17.175,0,0,1-4.6-3.877c-.552-.716.479-1.487,1.144-1.144a42.538,42.538,0,0,1,4.142,2.931c1.406.957,2.87,1.812,4.361,2.629a1,1,0,0,1,0,1.71M36.185,26.886c3.278-.876,7.516-2.373,8.6-5.989C46.77,14.289,37.6,9.3,32.713,7.092A58.556,58.556,0,0,0,15.539,2.425c-3.176-.368-8.371-1.179-11.2.826-2.446,1.733-1.193,5.361-.076,7.485,2.326,4.423,6.344,7.933,10.367,10.778A76.254,76.254,0,0,0,27.11,28.556a60.865,60.865,0,0,0,9.075-1.671" transform="translate(0 0)" fill="#c3f239"/>
    </g>
  </g>
</svg>
