<svg id="profit_02" data-name="profit 02" xmlns="http://www.w3.org/2000/svg" width="16" height="20.75" viewBox="0 0 16 20.75">
  <g id="profit" transform="translate(0 0)">
    <path id="Rectangle_923" data-name="Rectangle 923" d="M0,2A2,2,0,0,1,2,0h9a2,2,0,0,1,0,4H2A2,2,0,0,1,0,2Z" transform="translate(0 8.75)" fill="#808d9e" opacity="0.4"/>
    <path id="Vector" d="M11,0H2.167A2.088,2.088,0,0,0,0,2,2.088,2.088,0,0,0,2.167,4H11a2,2,0,0,0,0-4Z" transform="translate(0 12.75)" fill="#808d9e"/>
    <path id="Vector-2" data-name="Vector" d="M8,4A4,4,0,1,0,4,8,4,4,0,0,0,8,4Z" transform="translate(8 12.75)" fill="#808d9e" opacity="0.4"/>
    <path id="Vector_Stroke_" data-name="Vector (Stroke)" d="M3.5-2.146l.72-.72a.75.75,0,0,1,1.061,0,.75.75,0,0,1,0,1.061L3.987-.513a1.75,1.75,0,0,1-2.475,0L.22-1.805a.75.75,0,0,1,0-1.061.75.75,0,0,1,1.061,0l.72.72v-3.6a.75.75,0,0,1,.75-.75.75.75,0,0,1,.75.75Z" transform="translate(5.5 0) rotate(180)" fill="#808d9e"/>
  </g>
</svg>
