<svg id="setting" xmlns="http://www.w3.org/2000/svg" width="18" height="18" viewBox="0 0 18 18">
  <g id="setting-2" data-name="setting" transform="translate(0)">
    <path id="Vector" d="M9.955,0H8.045A1.857,1.857,0,0,0,6.136,1.8,1.5,1.5,0,0,1,3.92,3.117l-.1-.055a1.973,1.973,0,0,0-2.608.659L.256,5.279a1.745,1.745,0,0,0,.7,2.459,1.437,1.437,0,0,1,0,2.523,1.745,1.745,0,0,0-.7,2.459l.955,1.559a1.973,1.973,0,0,0,2.608.659l.1-.055A1.5,1.5,0,0,1,6.136,16.2,1.857,1.857,0,0,0,8.045,18H9.955a1.857,1.857,0,0,0,1.909-1.8,1.5,1.5,0,0,1,2.216-1.317l.1.055a1.974,1.974,0,0,0,2.608-.659l.955-1.559a1.745,1.745,0,0,0-.7-2.459,1.437,1.437,0,0,1,0-2.523,1.745,1.745,0,0,0,.7-2.459l-.955-1.559a1.973,1.973,0,0,0-2.608-.659l-.1.055A1.5,1.5,0,0,1,11.864,1.8,1.857,1.857,0,0,0,9.955,0Z" fill="#3394f8" opacity="0.4"/>
    <path id="Ellipse_91" data-name="Ellipse 91" d="M6,3A3,3,0,1,1,3,0,3,3,0,0,1,6,3Z" transform="translate(6 6)" fill="#3394f8"/>
  </g>
</svg>
